inDegrees=no
num_controls=7
num_derivatives=13
num_iterations=78
num_multipliers=7
num_parameters=0
num_slacks=7
num_states=26
objective=0.425244
objective_accelerations=0.038808
objective_balance=0.002367
objective_effort=0.067700
objective_height=0.304512
objective_ligament=0.011857
solver_duration=1040.571183
status=Solve_Succeeded
success=true
DataType=double
version=3
OpenSimVersion=4.5
endheader
time	/jointset/ground_pelvis/pelvis_tilt/value	/jointset/ground_pelvis/pelvis_tx/value	/jointset/ground_pelvis/pelvis_ty/value	/jointset/hip_l/hip_flexion_l/value	/jointset/hip_l/hip_adduction_l/value	/jointset/hip_l/hip_rotation_l/value	/jointset/back/lumbar_extension/value	/jointset/patellofemoral_l/patellar_flexion_l/value	/jointset/knee_l/knee_flexion_l/value	/jointset/knee_l/knee_adduction_l/value	/jointset/knee_l/knee_rotation_l/value	/jointset/ankle_l/ankle_angle_l/value	/jointset/subtalar_l/subtalar_angle_l/value	/jointset/ground_pelvis/pelvis_tilt/speed	/jointset/ground_pelvis/pelvis_tx/speed	/jointset/ground_pelvis/pelvis_ty/speed	/jointset/hip_l/hip_flexion_l/speed	/jointset/hip_l/hip_adduction_l/speed	/jointset/hip_l/hip_rotation_l/speed	/jointset/back/lumbar_extension/speed	/jointset/patellofemoral_l/patellar_flexion_l/speed	/jointset/knee_l/knee_flexion_l/speed	/jointset/knee_l/knee_adduction_l/speed	/jointset/knee_l/knee_rotation_l/speed	/jointset/ankle_l/ankle_angle_l/speed	/jointset/subtalar_l/subtalar_angle_l/speed	/forceset/tau_hip_flexion_l	/forceset/tau_hip_adduction_l	/forceset/tau_hip_rotation_l	/forceset/tau_knee_flexion_l	/forceset/tau_ankle_angle_l	/forceset/tau_subtalar_angle_l	/forceset/tau_lumbar_extension	lambda_cid13_p0	lambda_cid13_p1	lambda_cid13_p2	lambda_cid13_p3	lambda_cid13_p4	lambda_cid13_p5	lambda_cid14_p0	/jointset/ground_pelvis/pelvis_tilt/accel	/jointset/ground_pelvis/pelvis_tx/accel	/jointset/ground_pelvis/pelvis_ty/accel	/jointset/hip_l/hip_flexion_l/accel	/jointset/hip_l/hip_adduction_l/accel	/jointset/hip_l/hip_rotation_l/accel	/jointset/back/lumbar_extension/accel	/jointset/patellofemoral_l/patellar_flexion_l/accel	/jointset/knee_l/knee_flexion_l/accel	/jointset/knee_l/knee_adduction_l/accel	/jointset/knee_l/knee_rotation_l/accel	/jointset/ankle_l/ankle_angle_l/accel	/jointset/subtalar_l/subtalar_angle_l/accel	gamma_cid13_p0	gamma_cid13_p1	gamma_cid13_p2	gamma_cid13_p3	gamma_cid13_p4	gamma_cid13_p5	gamma_cid14_p0
0.5	-0.1243961022313116	-0.09207996955305495	0.6180217440230797	1.540836018884128	-0.3091632597372318	0.02508419624917288	-0.8978034385658288	1.546547049287995	1.546547049288229	0.05800487098106847	-0.1745144216567956	0.2427725966542286	0.07440583846451582	0.007140712811548685	-0.05511604776662874	-0.9516325385395308	2.668699261414607	0.04666808737850461	0.5225463226474416	-0.5570127797421753	2.76225617063797	2.762256170638105	0.5403881689590115	-9.254420721773101e-05	0.2701776635337985	0.1712797419372694	-0.3970461619303232	-0.01696274121849307	-0.01816944785349065	-0.4103338595244846	0.1428119448687838	0.03548337800816426	0.4574631809360162	-4.597301393043716	-10.49730051509633	-3.473276086192956	-16.05642280909036	-803.7039654131315	-71.44072277681288	-0.04120144556475888	1.624436718285692	1.233934160810662	1.037303102462209	-4.692399730490176	0.158333709009284	-1.608235022575127	3.158020794447044	-5.772764205632441	-5.772764205632656	-0.5097764096221874	0.01880683404760706	-3.134552882373138	-1.074871743652275	5.376788386571406e-07	-1.908118806837247e-06	-4.429587061450806e-06	-1.098716567622641e-06	-1.602712629673613e-07	-5.297389164824586e-06	4.70784271028385e-07
0.51	-0.1242440549579655	-0.09257022949298199	0.6085597421906445	1.567285918277221	-0.3086891076170757	0.03022500491850613	-0.9032167321178141	1.57387815044023	1.573878150440321	0.06338657454966212	-0.1745152519530337	0.2453178855661648	0.07606414369887646	0.02321530884245846	-0.04301821534789074	-0.9405028514214895	2.620948446543134	0.04812434827088383	0.5055986056738101	-0.5257802456518114	2.703652315497808	2.703652315498211	0.5358583766341459	-7.308599210432832e-05	0.2389279689405045	0.1603203196755998	-0.402261177368423	-0.01851723602920537	-0.01920022244867673	-0.4183022819292365	0.1436686306882233	0.03428649009457725	0.4631667938892562	-4.993528846774337	-9.641322282253894	-3.914481568743496	-14.99162162204652	-812.5852744117401	-71.04578650457742	-0.04091292221371552	1.590994314579985	1.185146503167322	1.190514881320247	-4.866192274786516	0.1342160919163782	-1.740290015701547	3.085722466825072	-5.951058409371158	-5.951058409330558	-0.43857919195923	-0.007481928159526312	-3.113051669644483	-1.114795788383035	5.637626525078685e-07	-1.835917104493263e-06	-4.501965972430142e-06	-1.082903175897271e-06	-1.717232197443209e-07	-5.704623747552756e-06	5.210117242666928e-07
0.52	-0.1239328570704926	-0.0929420233645694	0.5992169799023584	1.593248355539738	-0.3082014041254829	0.03519588642191273	-0.9083217297787968	1.600613840592831	1.600613840592782	0.06872018048538912	-0.1745160871158009	0.2475521027478007	0.07761119104642865	0.03897083563682657	-0.03142283409870039	-0.9277846297096369	2.571206835299231	0.04937836166582725	0.4885608894624039	-0.495353601541683	2.643173970711127	2.643173970711802	0.5307686423876627	-9.351751310031764e-05	0.207963317473732	0.1490281645755808	-0.4074761928065221	-0.02007173083991686	-0.02023099704388671	-0.4262707043339892	0.1445253165076635	0.03308960218099188	0.4688704068424971	-5.423126250475907	-8.776491065499361	-4.360542624572168	-13.81189091893904	-821.8759457923313	-70.6800328660819	-0.04064832764674924	1.560622870977378	1.13344392690111	1.355010021224413	-5.090559004976208	0.1178842095221239	-1.626234870130051	2.996842798399942	-6.147662134935902	-6.147662134935888	-0.6217647939456906	0.01082888682573501	-3.077544257068884	-1.141418311322172	5.764846219688152e-07	-1.741921584733966e-06	-4.467241448286964e-06	-1.048261393315923e-06	-1.841547602571261e-07	-6.003135294388418e-06	5.574585188162649e-07
0.53	-0.1234660795224371	-0.09320042025760873	0.5900091681160177	1.618703614537913	-0.3077021026390033	0.03999593131568847	-0.9131264444415013	1.626735764402443	1.626735764402293	0.07400020520007274	-0.1745169387047445	0.2494787054373279	0.07904405576822833	0.05429266813079439	-0.02034374963475918	-0.9135302313040231	2.519528518180952	0.05044110126512927	0.4714327509137001	-0.465719222187854	2.580933144168442	2.580933144169116	0.5251363607768788	-7.696410965689713e-05	0.1774638423396159	0.1375115835436111	-0.4116249902731417	-0.02173045234161488	-0.02144604680851768	-0.4333339514866829	0.1454574813550039	0.03191131406718761	0.4735474783908696	-5.743003776920041	-7.944570565687545	-4.794929924545862	-12.77924906668661	-829.8833356516564	-70.20667763147765	-0.04036762477428093	1.504211101265785	1.081853924109321	1.497741051494886	-5.253870735149202	0.09495931139611495	-1.758097435557606	2.92725182561486	-6.304055290821606	-6.304055290821836	-0.5487344115005957	-0.004018933647603265	-3.020191527455291	-1.160966969198478	5.763625948790401e-07	-1.625234588486748e-06	-4.334812541640488e-06	-9.971151773931972e-07	-1.930629649943192e-07	-6.158131569612342e-06	5.784094477685926e-07
0.54	-0.1228488341169096	-0.09335068366241504	0.580951317573986	1.643632609830927	-0.3071932756612782	0.04462429600631161	-0.9176387120463193	1.652226927471252	1.652226927471	0.07922095218527386	-0.1745178422598025	0.2511035048983395	0.08036091688569551	0.06906440713113789	-0.009796136452094741	-0.8977923808478037	2.465954094266855	0.05128345991490547	0.4542248488323141	-0.4368641899644013	2.517021822550287	2.517021822550959	0.5189130964918619	-0.0001039107362634676	0.1476026717706067	0.1258274437090764	-0.4157737877397625	-0.0233891738433138	-0.02266109657315472	-0.4403971986393763	0.1463896462023451	0.03073302595338248	0.4782245499392414	-6.096385541174852	-7.105095073701979	-5.232455859702218	-11.62094988224677	-838.3036773137338	-69.75773575524168	-0.04007091960311031	1.450604172252533	1.027149670645738	1.651700431345501	-5.469780364139921	0.07380801961696386	-1.6421875766665	2.840973372324709	-6.481761150029824	-6.481761150029789	-0.7399613287922902	0.002128880815743351	-2.949883344047539	-1.174930071835202	5.620301886267643e-07	-1.483442128891192e-06	-4.094285169245679e-06	-9.277087373480977e-07	-1.980730110010478e-07	-6.154344991138171e-06	5.822160147835436e-07
0.55	-0.1220869059682096	-0.09339817514494314	0.5720580807923574	1.668016438374239	-0.3066770686634108	0.04908058672012122	-0.9218663846187659	1.677070990469107	1.677070990469092	0.08437619427476542	-0.174518849476418	0.2524334807752192	0.08156049630044648	0.0831985916175175	0.0002054336308699314	-0.8806266797044932	2.410502749461218	0.05191548069836759	0.4370261532014043	-0.4088033033238447	2.451544902810395	2.451544902810787	0.5120269880438284	-9.734322834702871e-05	0.1185566244999691	0.1140854549305099	-0.4188557162591429	-0.02508915127624855	-0.02405798318060726	-0.4464555849121272	0.1473284912682574	0.02956630150864373	0.4818503049497015	-6.357637732564019	-6.294247545489656	-5.656875043432256	-10.59500306454105	-845.3741093119625	-69.1709720742836	-0.03974917321953338	1.376483370042578	0.9726217595931743	1.783209160668733	-5.629075912105349	0.05206757712105452	-1.759476866725603	2.768699490120525	-6.617655375983449	-6.61765537602558	-0.6789154196280688	-0.00101489412688633	-2.857366290518842	-1.173593629473662	5.377447385218581e-07	-1.327356313646929e-06	-3.78720616782281e-06	-8.479109343164409e-07	-1.962794092777742e-07	-6.015141531238189e-06	5.7235378641598e-07
